<?xml version="1.0" standalone="no"?><svg xmlns="http://www.w3.org/2000/svg" viewBox="0 0 1440 320"><path fill="##33342c" fill-opacity="1" d="M0,224L24,197.3C48,171,96,117,144,117.3C192,117,240,171,288,176C336,181,384,139,432,138.7C480,139,528,181,576,176C624,171,672,117,720,106.7C768,96,816,128,864,138.7C912,149,960,139,1008,128C1056,117,1104,107,1152,133.3C1200,160,1248,224,1296,224C1344,224,1392,160,1416,128L1440,96L1440,320L1416,320C1392,320,1344,320,1296,320C1248,320,1200,320,1152,320C1104,320,1056,320,1008,320C960,320,912,320,864,320C816,320,768,320,720,320C672,320,624,320,576,320C528,320,480,320,432,320C384,320,336,320,288,320C240,320,192,320,144,320C96,320,48,320,24,320L0,320Z"></path></svg>