<?xml version="1.0" standalone="no"?><svg xmlns="http://www.w3.org/2000/svg" viewBox="0 0 1440 320"><path fill="#A1866F" fill-opacity="1" d="M0,96L24,122.7C48,149,96,203,144,192C192,181,240,107,288,112C336,117,384,203,432,224C480,245,528,203,576,165.3C624,128,672,96,720,80C768,64,816,64,864,90.7C912,117,960,171,1008,170.7C1056,171,1104,117,1152,106.7C1200,96,1248,128,1296,122.7C1344,117,1392,75,1416,53.3L1440,32L1440,320L1416,320C1392,320,1344,320,1296,320C1248,320,1200,320,1152,320C1104,320,1056,320,1008,320C960,320,912,320,864,320C816,320,768,320,720,320C672,320,624,320,576,320C528,320,480,320,432,320C384,320,336,320,288,320C240,320,192,320,144,320C96,320,48,320,24,320L0,320Z"></path></svg>