<svg width="24" height="17" viewBox="0 0 24 17" fill="none" xmlns="http://www.w3.org/2000/svg">
<path fill-rule="evenodd" clip-rule="evenodd" d="M11.2275 16.4319C11.1441 16.7657 10.8441 16.9999 10.5 17C10.4368 17.0003 10.3738 16.9927 10.3125 16.9775L7.3125 16.2275C7.22898 16.2065 7.1497 16.1713 7.07812 16.1234L4.82812 14.6234C4.48355 14.3935 4.39058 13.9279 4.62047 13.5833C4.85036 13.2387 5.31605 13.1457 5.66062 13.3756L7.80188 14.8034L10.6763 15.5225C10.8702 15.5695 11.0374 15.6919 11.1409 15.8626C11.2444 16.0333 11.2755 16.2382 11.2275 16.4319ZM23.6672 7.38875C23.5429 7.76629 23.2729 8.07851 22.9172 8.25594L20.6972 9.36594L15.5334 14.5306C15.347 14.7169 15.0765 14.7916 14.8209 14.7275L8.82094 13.2275C8.72969 13.2046 8.64353 13.1649 8.56688 13.1103L3.36188 9.39406L1.08563 8.25594C0.344835 7.88562 0.0443487 6.985 0.414375 6.24406L2.74406 1.58563C3.11438 0.844835 4.015 0.544349 4.75594 0.914375L6.82406 1.94562L11.7928 0.52625C11.9276 0.487694 12.0705 0.487694 12.2053 0.52625L17.1741 1.94562L19.2422 0.914375C19.9831 0.544349 20.8837 0.844835 21.2541 1.58563L23.5837 6.24406C23.7632 6.59919 23.7933 7.01134 23.6672 7.38875ZM19.3378 8.60188L16.7869 3.5H13.8038L9.75 7.4375C10.9369 8.19594 12.7978 8.405 14.4675 6.72219C14.7376 6.44998 15.1695 6.42531 15.4688 6.665L18.6947 9.24969L19.3378 8.60188ZM1.75594 6.91438L3.41438 7.74406L5.74406 3.08563L4.08563 2.25594L1.75594 6.91438ZM17.625 10.3119L15.0272 8.23156C13.1953 9.73156 10.8694 9.92937 8.94188 8.70031C8.55782 8.45601 8.30547 8.05054 8.25589 7.59808C8.2063 7.14562 8.36485 6.69512 8.68688 6.37344C8.68913 6.37071 8.69164 6.3682 8.69438 6.36594L12.9 2.28687L12 2.03L7.27313 3.38094L4.70719 8.51188L9.31969 11.8072L14.7703 13.1694L17.625 10.3119ZM22.2412 6.91438L19.9144 2.25594L18.2559 3.08563L20.5856 7.74406L22.2412 6.91438Z" fill="#141414"/>
</svg>
