<?xml version="1.0" standalone="no"?><svg xmlns="http://www.w3.org/2000/svg" viewBox="0 0 1440 320"><path fill="#33342c" fill-opacity="1" d="M0,128L24,160C48,192,96,256,144,282.7C192,309,240,299,288,293.3C336,288,384,288,432,261.3C480,235,528,181,576,160C624,139,672,149,720,176C768,203,816,245,864,272C912,299,960,309,1008,309.3C1056,309,1104,299,1152,272C1200,245,1248,203,1296,176C1344,149,1392,139,1416,133.3L1440,128L1440,320L1416,320C1392,320,1344,320,1296,320C1248,320,1200,320,1152,320C1104,320,1056,320,1008,320C960,320,912,320,864,320C816,320,768,320,720,320C672,320,624,320,576,320C528,320,480,320,432,320C384,320,336,320,288,320C240,320,192,320,144,320C96,320,48,320,24,320L0,320Z"></path></svg>