<?xml version="1.0" standalone="no"?><svg xmlns="http://www.w3.org/2000/svg" viewBox="0 0 1440 320"><path fill="#33342c" fill-opacity="1" d="M0,64L24,80C48,96,96,128,144,154.7C192,181,240,203,288,218.7C336,235,384,245,432,218.7C480,192,528,128,576,112C624,96,672,128,720,165.3C768,203,816,245,864,250.7C912,256,960,224,1008,197.3C1056,171,1104,149,1152,128C1200,107,1248,85,1296,96C1344,107,1392,149,1416,170.7L1440,192L1440,320L1416,320C1392,320,1344,320,1296,320C1248,320,1200,320,1152,320C1104,320,1056,320,1008,320C960,320,912,320,864,320C816,320,768,320,720,320C672,320,624,320,576,320C528,320,480,320,432,320C384,320,336,320,288,320C240,320,192,320,144,320C96,320,48,320,24,320L0,320Z"></path></svg>